<svg width="380" height="72" viewBox="0 0 380 72" fill="none" xmlns="http://www.w3.org/2000/svg">
<path d="M10.7727 4.93384H9.36364C9.2803 4.52853 9.13447 4.17247 8.92614 3.86566C8.72159 3.55884 8.47159 3.30126 8.17614 3.09293C7.88447 2.88081 7.56061 2.72172 7.20455 2.61566C6.84849 2.5096 6.47727 2.45656 6.09091 2.45656C5.38636 2.45656 4.74811 2.6346 4.17614 2.99066C3.60795 3.34672 3.1553 3.87134 2.81818 4.56452C2.48485 5.2577 2.31818 6.10808 2.31818 7.11566C2.31818 8.12323 2.48485 8.97361 2.81818 9.66679C3.1553 10.36 3.60795 10.8846 4.17614 11.2407C4.74811 11.5967 5.38636 11.7747 6.09091 11.7747C6.47727 11.7747 6.84849 11.7217 7.20455 11.6157C7.56061 11.5096 7.88447 11.3524 8.17614 11.1441C8.47159 10.9319 8.72159 10.6725 8.92614 10.3657C9.13447 10.055 9.2803 9.69899 9.36364 9.29747H10.7727C10.6667 9.89217 10.4735 10.4244 10.1932 10.8941C9.91288 11.3638 9.56439 11.7634 9.14773 12.0929C8.73106 12.4187 8.26326 12.6668 7.74432 12.8372C7.22917 13.0077 6.67803 13.0929 6.09091 13.0929C5.09849 13.0929 4.21591 12.8505 3.44318 12.3657C2.67045 11.8808 2.0625 11.1914 1.61932 10.2975C1.17614 9.40353 0.954545 8.34293 0.954545 7.11566C0.954545 5.88838 1.17614 4.82778 1.61932 3.93384C2.0625 3.0399 2.67045 2.3505 3.44318 1.86566C4.21591 1.38081 5.09849 1.13838 6.09091 1.13838C6.67803 1.13838 7.22917 1.22361 7.74432 1.39406C8.26326 1.56452 8.73106 1.81452 9.14773 2.14406C9.56439 2.46982 9.91288 2.86755 10.1932 3.33725C10.4735 3.80316 10.6667 4.33535 10.7727 4.93384ZM16.4134 13.1157C15.6255 13.1157 14.9342 12.9282 14.3395 12.5532C13.7486 12.1782 13.2865 11.6535 12.9531 10.9793C12.6236 10.305 12.4588 9.51717 12.4588 8.61566C12.4588 7.70656 12.6236 6.913 12.9531 6.23497C13.2865 5.55694 13.7486 5.03043 14.3395 4.65543C14.9342 4.28043 15.6255 4.09293 16.4134 4.09293C17.2012 4.09293 17.8906 4.28043 18.4815 4.65543C19.0762 5.03043 19.5384 5.55694 19.8679 6.23497C20.2012 6.913 20.3679 7.70656 20.3679 8.61566C20.3679 9.51717 20.2012 10.305 19.8679 10.9793C19.5384 11.6535 19.0762 12.1782 18.4815 12.5532C17.8906 12.9282 17.2012 13.1157 16.4134 13.1157ZM16.4134 11.9111C17.0118 11.9111 17.5043 11.7577 17.8906 11.4509C18.277 11.1441 18.563 10.7407 18.7486 10.2407C18.9342 9.74066 19.027 9.19899 19.027 8.61566C19.027 8.03232 18.9342 7.48876 18.7486 6.98497C18.563 6.48119 18.277 6.07399 17.8906 5.76338C17.5043 5.45278 17.0118 5.29747 16.4134 5.29747C15.8149 5.29747 15.3224 5.45278 14.9361 5.76338C14.5497 6.07399 14.2637 6.48119 14.0781 6.98497C13.8925 7.48876 13.7997 8.03232 13.7997 8.61566C13.7997 9.19899 13.8925 9.74066 14.0781 10.2407C14.2637 10.7407 14.5497 11.1441 14.9361 11.4509C15.3224 11.7577 15.8149 11.9111 16.4134 11.9111ZM22.4148 12.9338V4.20656H23.7102V5.5702H23.8239C24.0057 5.10429 24.2992 4.74255 24.7045 4.48497C25.1098 4.22361 25.5966 4.09293 26.1648 4.09293C26.7405 4.09293 27.2197 4.22361 27.6023 4.48497C27.9886 4.74255 28.2898 5.10429 28.5057 5.5702H28.5966C28.8201 5.11944 29.1553 4.76149 29.6023 4.49634C30.0492 4.2274 30.5852 4.09293 31.2102 4.09293C31.9905 4.09293 32.6288 4.33725 33.125 4.82588C33.6212 5.31073 33.8693 6.06641 33.8693 7.09293V12.9338H32.5284V7.09293C32.5284 6.44899 32.3523 5.98876 32 5.71225C31.6477 5.43573 31.233 5.29747 30.7557 5.29747C30.142 5.29747 29.6667 5.48308 29.3295 5.85429C28.9924 6.22172 28.8239 6.68763 28.8239 7.25202V12.9338H27.4602V6.95656C27.4602 6.46035 27.2992 6.06073 26.9773 5.7577C26.6553 5.45088 26.2405 5.29747 25.733 5.29747C25.3845 5.29747 25.0587 5.39028 24.7557 5.57588C24.4564 5.76149 24.214 6.01907 24.0284 6.34861C23.8466 6.67437 23.7557 7.05126 23.7557 7.47929V12.9338H22.4148ZM36.321 12.9338V4.20656H37.6165V5.5702H37.7301C37.9119 5.10429 38.2055 4.74255 38.6108 4.48497C39.0161 4.22361 39.5028 4.09293 40.071 4.09293C40.6468 4.09293 41.1259 4.22361 41.5085 4.48497C41.8949 4.74255 42.196 5.10429 42.4119 5.5702H42.5028C42.7263 5.11944 43.0616 4.76149 43.5085 4.49634C43.9555 4.2274 44.4915 4.09293 45.1165 4.09293C45.8968 4.09293 46.535 4.33725 47.0312 4.82588C47.5275 5.31073 47.7756 6.06641 47.7756 7.09293V12.9338H46.4347V7.09293C46.4347 6.44899 46.2585 5.98876 45.9062 5.71225C45.554 5.43573 45.1392 5.29747 44.6619 5.29747C44.0483 5.29747 43.5729 5.48308 43.2358 5.85429C42.8987 6.22172 42.7301 6.68763 42.7301 7.25202V12.9338H41.3665V6.95656C41.3665 6.46035 41.2055 6.06073 40.8835 5.7577C40.5616 5.45088 40.1468 5.29747 39.6392 5.29747C39.2907 5.29747 38.965 5.39028 38.6619 5.57588C38.3627 5.76149 38.1203 6.01907 37.9347 6.34861C37.7528 6.67437 37.6619 7.05126 37.6619 7.47929V12.9338H36.321ZM53.7727 13.1157C52.9848 13.1157 52.2936 12.9282 51.6989 12.5532C51.108 12.1782 50.6458 11.6535 50.3125 10.9793C49.983 10.305 49.8182 9.51717 49.8182 8.61566C49.8182 7.70656 49.983 6.913 50.3125 6.23497C50.6458 5.55694 51.108 5.03043 51.6989 4.65543C52.2936 4.28043 52.9848 4.09293 53.7727 4.09293C54.5606 4.09293 55.25 4.28043 55.8409 4.65543C56.4356 5.03043 56.8977 5.55694 57.2273 6.23497C57.5606 6.913 57.7273 7.70656 57.7273 8.61566C57.7273 9.51717 57.5606 10.305 57.2273 10.9793C56.8977 11.6535 56.4356 12.1782 55.8409 12.5532C55.25 12.9282 54.5606 13.1157 53.7727 13.1157ZM53.7727 11.9111C54.3712 11.9111 54.8636 11.7577 55.25 11.4509C55.6364 11.1441 55.9223 10.7407 56.108 10.2407C56.2936 9.74066 56.3864 9.19899 56.3864 8.61566C56.3864 8.03232 56.2936 7.48876 56.108 6.98497C55.9223 6.48119 55.6364 6.07399 55.25 5.76338C54.8636 5.45278 54.3712 5.29747 53.7727 5.29747C53.1742 5.29747 52.6818 5.45278 52.2955 5.76338C51.9091 6.07399 51.6231 6.48119 51.4375 6.98497C51.2519 7.48876 51.1591 8.03232 51.1591 8.61566C51.1591 9.19899 51.2519 9.74066 51.4375 10.2407C51.6231 10.7407 51.9091 11.1441 52.2955 11.4509C52.6818 11.7577 53.1742 11.9111 53.7727 11.9111ZM61.1151 7.68384V12.9338H59.7741V4.20656H61.0696V5.5702H61.1832C61.3878 5.12702 61.6984 4.77096 62.1151 4.50202C62.5317 4.22929 63.0696 4.09293 63.7287 4.09293C64.3196 4.09293 64.8366 4.21414 65.2798 4.45656C65.723 4.6952 66.0677 5.05884 66.3139 5.54747C66.5601 6.03232 66.6832 6.64596 66.6832 7.38838V12.9338H65.3423V7.47929C65.3423 6.79369 65.1643 6.2596 64.8082 5.87702C64.4522 5.49066 63.9635 5.29747 63.3423 5.29747C62.9143 5.29747 62.5317 5.39028 62.1946 5.57588C61.8613 5.76149 61.598 6.03232 61.4048 6.38838C61.2116 6.74444 61.1151 7.17626 61.1151 7.68384ZM70.4744 1.29747V12.9338H69.1335V1.29747H70.4744ZM73.794 16.2066C73.5668 16.2066 73.3641 16.1876 73.1861 16.1497C73.008 16.1157 72.8849 16.0816 72.8168 16.0475L73.1577 14.8657C73.4834 14.949 73.7713 14.9793 74.0213 14.9566C74.2713 14.9338 74.4929 14.8221 74.6861 14.6213C74.883 14.4244 75.063 14.1043 75.2259 13.6611L75.4759 12.9793L72.2486 4.20656H73.7031L76.1122 11.1611H76.2031L78.6122 4.20656H80.0668L76.3622 14.2066C76.1955 14.6573 75.9891 15.0304 75.7429 15.3259C75.4967 15.6251 75.2107 15.8467 74.8849 15.9907C74.563 16.1346 74.1993 16.2066 73.794 16.2066ZM94.1548 1.29747H95.5639V9.00202C95.5639 9.79747 95.3764 10.5077 95.0014 11.1327C94.6302 11.7539 94.1056 12.2444 93.4276 12.6043C92.7495 12.9604 91.9541 13.1384 91.0412 13.1384C90.1283 13.1384 89.3329 12.9604 88.6548 12.6043C87.9768 12.2444 87.4503 11.7539 87.0753 11.1327C86.7041 10.5077 86.5185 9.79747 86.5185 9.00202V1.29747H87.9276V8.88838C87.9276 9.45657 88.0526 9.96225 88.3026 10.4054C88.5526 10.8448 88.9086 11.1914 89.3707 11.4452C89.8366 11.6952 90.3935 11.8202 91.0412 11.8202C91.6889 11.8202 92.2457 11.6952 92.7116 11.4452C93.1776 11.1914 93.5336 10.8448 93.7798 10.4054C94.0298 9.96225 94.1548 9.45657 94.1548 8.88838V1.29747ZM104.378 6.16111L103.173 6.50202C103.098 6.30126 102.986 6.10619 102.838 5.91679C102.694 5.72361 102.497 5.56452 102.247 5.43952C101.997 5.31452 101.677 5.25202 101.287 5.25202C100.753 5.25202 100.308 5.37513 99.9517 5.62134C99.5994 5.86376 99.4233 6.17247 99.4233 6.54747C99.4233 6.88081 99.5445 7.14406 99.7869 7.33725C100.029 7.53043 100.408 7.69141 100.923 7.8202L102.219 8.13838C102.999 8.32778 103.58 8.61755 103.963 9.0077C104.346 9.39407 104.537 9.89217 104.537 10.502C104.537 11.002 104.393 11.449 104.105 11.8429C103.821 12.2369 103.423 12.5475 102.912 12.7747C102.401 13.002 101.806 13.1157 101.128 13.1157C100.238 13.1157 99.5009 12.9225 98.9176 12.5361C98.3343 12.1497 97.965 11.5854 97.8097 10.8429L99.0824 10.5247C99.2036 10.9944 99.4328 11.3467 99.7699 11.5816C100.111 11.8164 100.556 11.9338 101.105 11.9338C101.73 11.9338 102.226 11.8013 102.594 11.5361C102.965 11.2672 103.151 10.9452 103.151 10.5702C103.151 10.2672 103.045 10.0134 102.832 9.80884C102.62 9.6005 102.295 9.4452 101.855 9.34293L100.401 9.00202C99.6013 8.81263 99.0142 8.51907 98.6392 8.12134C98.268 7.71982 98.0824 7.21793 98.0824 6.61566C98.0824 6.12323 98.2206 5.68763 98.4972 5.30884C98.7775 4.93005 99.1581 4.6327 99.6392 4.41679C100.124 4.20088 100.673 4.09293 101.287 4.09293C102.151 4.09293 102.829 4.28232 103.321 4.66111C103.817 5.0399 104.17 5.5399 104.378 6.16111ZM110.214 13.1157C109.374 13.1157 108.648 12.9301 108.038 12.5588C107.432 12.1838 106.964 11.6611 106.635 10.9907C106.309 10.3164 106.146 9.53232 106.146 8.63838C106.146 7.74444 106.309 6.95656 106.635 6.27475C106.964 5.58914 107.423 5.05505 108.01 4.67247C108.601 4.28611 109.29 4.09293 110.078 4.09293C110.533 4.09293 110.982 4.16869 111.425 4.3202C111.868 4.47172 112.271 4.71793 112.635 5.05884C112.999 5.39596 113.288 5.84293 113.504 6.39975C113.72 6.95656 113.828 7.64217 113.828 8.45656V9.02475H107.101V7.86566H112.464C112.464 7.37323 112.366 6.93384 112.169 6.54747C111.976 6.16111 111.699 5.85619 111.339 5.6327C110.983 5.40922 110.563 5.29747 110.078 5.29747C109.544 5.29747 109.082 5.43005 108.692 5.6952C108.305 5.95657 108.008 6.29747 107.8 6.71793C107.591 7.13838 107.487 7.58914 107.487 8.0702V8.84293C107.487 9.50202 107.601 10.0607 107.828 10.5191C108.059 10.9736 108.379 11.3202 108.788 11.5588C109.197 11.7937 109.673 11.9111 110.214 11.9111C110.567 11.9111 110.885 11.8619 111.169 11.7634C111.457 11.6611 111.705 11.5096 111.913 11.3088C112.122 11.1043 112.283 10.8505 112.396 10.5475L113.692 10.9111C113.555 11.3505 113.326 11.7369 113.004 12.0702C112.682 12.3997 112.285 12.6573 111.811 12.8429C111.338 13.0247 110.805 13.1157 110.214 13.1157ZM119.163 13.1157C118.436 13.1157 117.794 12.9319 117.237 12.5645C116.68 12.1933 116.245 11.6706 115.93 10.9963C115.616 10.3183 115.459 9.51717 115.459 8.59293C115.459 7.67626 115.616 6.88081 115.93 6.20656C116.245 5.53232 116.682 5.01149 117.243 4.64406C117.804 4.27664 118.451 4.09293 119.186 4.09293C119.754 4.09293 120.203 4.18763 120.533 4.37702C120.866 4.56263 121.12 4.77475 121.294 5.01338C121.472 5.24823 121.61 5.44141 121.709 5.59293H121.822V1.29747H123.163V12.9338H121.868V11.5929H121.709C121.61 11.752 121.47 11.9528 121.288 12.1952C121.107 12.4338 120.847 12.6479 120.51 12.8372C120.173 13.0229 119.724 13.1157 119.163 13.1157ZM119.345 11.9111C119.883 11.9111 120.338 11.771 120.709 11.4907C121.08 11.2066 121.362 10.8145 121.555 10.3145C121.749 9.81073 121.845 9.22929 121.845 8.5702C121.845 7.91869 121.75 7.34861 121.561 6.85997C121.372 6.36755 121.091 5.98497 120.72 5.71225C120.349 5.43573 119.891 5.29747 119.345 5.29747C118.777 5.29747 118.304 5.44331 117.925 5.73497C117.55 6.02285 117.268 6.4149 117.078 6.91111C116.893 7.40353 116.8 7.95657 116.8 8.5702C116.8 9.19141 116.894 9.75581 117.084 10.2634C117.277 10.7672 117.561 11.1687 117.936 11.4679C118.315 11.7634 118.785 11.9111 119.345 11.9111ZM131.896 1.29747V12.9338H130.487V1.29747H131.896ZM135.881 7.68384V12.9338H134.54V4.20656H135.835V5.5702H135.949C136.153 5.12702 136.464 4.77096 136.881 4.50202C137.297 4.22929 137.835 4.09293 138.494 4.09293C139.085 4.09293 139.602 4.21414 140.045 4.45656C140.489 4.6952 140.833 5.05884 141.08 5.54747C141.326 6.03232 141.449 6.64596 141.449 7.38838V12.9338H140.108V7.47929C140.108 6.79369 139.93 6.2596 139.574 5.87702C139.218 5.49066 138.729 5.29747 138.108 5.29747C137.68 5.29747 137.297 5.39028 136.96 5.57588C136.627 5.76149 136.364 6.03232 136.17 6.38838C135.977 6.74444 135.881 7.17626 135.881 7.68384ZM147.945 2.54747V1.29747H156.672V2.54747H153.013V12.9338H151.604V2.54747H147.945ZM160.006 7.68384V12.9338H158.665V1.29747H160.006V5.5702H160.119C160.324 5.11944 160.631 4.76149 161.04 4.49634C161.453 4.2274 162.002 4.09293 162.688 4.09293C163.282 4.09293 163.803 4.21225 164.25 4.45088C164.697 4.68573 165.044 5.04747 165.29 5.53611C165.54 6.02096 165.665 6.63838 165.665 7.38838V12.9338H164.324V7.47929C164.324 6.78611 164.144 6.25013 163.784 5.87134C163.428 5.48876 162.934 5.29747 162.301 5.29747C161.862 5.29747 161.468 5.39028 161.119 5.57588C160.775 5.76149 160.502 6.03232 160.301 6.38838C160.104 6.74444 160.006 7.17626 160.006 7.68384ZM171.777 13.1157C170.936 13.1157 170.211 12.9301 169.601 12.5588C168.995 12.1838 168.527 11.6611 168.197 10.9907C167.872 10.3164 167.709 9.53232 167.709 8.63838C167.709 7.74444 167.872 6.95656 168.197 6.27475C168.527 5.58914 168.985 5.05505 169.572 4.67247C170.163 4.28611 170.853 4.09293 171.641 4.09293C172.095 4.09293 172.544 4.16869 172.987 4.3202C173.43 4.47172 173.834 4.71793 174.197 5.05884C174.561 5.39596 174.851 5.84293 175.067 6.39975C175.283 6.95656 175.391 7.64217 175.391 8.45656V9.02475H168.663V7.86566H174.027C174.027 7.37323 173.929 6.93384 173.732 6.54747C173.538 6.16111 173.262 5.85619 172.902 5.6327C172.546 5.40922 172.125 5.29747 171.641 5.29747C171.107 5.29747 170.644 5.43005 170.254 5.6952C169.868 5.95657 169.571 6.29747 169.362 6.71793C169.154 7.13838 169.05 7.58914 169.05 8.0702V8.84293C169.05 9.50202 169.163 10.0607 169.391 10.5191C169.622 10.9736 169.942 11.3202 170.351 11.5588C170.76 11.7937 171.235 11.9111 171.777 11.9111C172.129 11.9111 172.447 11.8619 172.732 11.7634C173.019 11.6611 173.268 11.5096 173.476 11.3088C173.684 11.1043 173.845 10.8505 173.959 10.5475L175.254 10.9111C175.118 11.3505 174.889 11.7369 174.567 12.0702C174.245 12.3997 173.847 12.6573 173.374 12.8429C172.9 13.0247 172.368 13.1157 171.777 13.1157ZM190.067 4.93384C189.942 4.55126 189.777 4.20846 189.572 3.90543C189.372 3.59861 189.131 3.33725 188.851 3.12134C188.574 2.90543 188.26 2.74066 187.908 2.62702C187.555 2.51338 187.169 2.45656 186.749 2.45656C186.059 2.45656 185.432 2.6346 184.868 2.99066C184.304 3.34672 183.855 3.87134 183.521 4.56452C183.188 5.2577 183.021 6.10808 183.021 7.11566C183.021 8.12323 183.19 8.97361 183.527 9.66679C183.864 10.36 184.321 10.8846 184.896 11.2407C185.472 11.5967 186.12 11.7747 186.839 11.7747C187.506 11.7747 188.093 11.6327 188.601 11.3486C189.112 11.0607 189.51 10.6554 189.794 10.1327C190.082 9.60619 190.226 8.98687 190.226 8.27475L190.658 8.36566H187.158V7.11566H191.589V8.36566C191.589 9.32399 191.385 10.1573 190.976 10.8657C190.571 11.574 190.01 12.1232 189.294 12.5134C188.582 12.8997 187.764 13.0929 186.839 13.0929C185.809 13.0929 184.904 12.8505 184.124 12.3657C183.347 11.8808 182.741 11.1914 182.305 10.2975C181.874 9.40353 181.658 8.34293 181.658 7.11566C181.658 6.1952 181.781 5.36755 182.027 4.6327C182.277 3.89406 182.629 3.26528 183.084 2.74634C183.538 2.2274 184.076 1.82967 184.697 1.55316C185.319 1.27664 186.002 1.13838 186.749 1.13838C187.362 1.13838 187.934 1.23119 188.464 1.41679C188.999 1.59861 189.474 1.85808 189.891 2.1952C190.311 2.52853 190.661 2.92816 190.942 3.39406C191.222 3.85619 191.415 4.36944 191.521 4.93384H190.067ZM193.821 12.9338V4.20656H195.116V5.52475H195.207C195.366 5.09293 195.654 4.74255 196.071 4.47361C196.488 4.20467 196.957 4.0702 197.48 4.0702C197.579 4.0702 197.702 4.07209 197.849 4.07588C197.997 4.07967 198.109 4.08535 198.185 4.09293V5.45656C198.139 5.4452 198.035 5.42816 197.872 5.40543C197.713 5.37891 197.545 5.36566 197.366 5.36566C196.942 5.36566 196.563 5.45467 196.23 5.6327C195.901 5.80694 195.639 6.04937 195.446 6.35997C195.257 6.66679 195.162 7.01717 195.162 7.41111V12.9338H193.821ZM202.342 13.1384C201.789 13.1384 201.287 13.0342 200.837 12.8259C200.386 12.6138 200.028 12.3088 199.763 11.9111C199.498 11.5096 199.365 11.0247 199.365 10.4566C199.365 9.95657 199.464 9.55126 199.661 9.24066C199.857 8.92626 200.121 8.68005 200.45 8.50202C200.78 8.32399 201.143 8.19141 201.541 8.10429C201.943 8.01338 202.346 7.94141 202.751 7.88838C203.282 7.8202 203.712 7.76906 204.041 7.73497C204.375 7.6971 204.617 7.6346 204.768 7.54747C204.924 7.46035 205.001 7.30884 205.001 7.09293V7.04747C205.001 6.48687 204.848 6.05126 204.541 5.74066C204.238 5.43005 203.778 5.27475 203.161 5.27475C202.52 5.27475 202.018 5.4149 201.655 5.6952C201.291 5.9755 201.036 6.27475 200.888 6.59293L199.615 6.13838C199.842 5.60808 200.145 5.1952 200.524 4.89975C200.907 4.6005 201.323 4.39217 201.774 4.27475C202.229 4.15353 202.676 4.09293 203.115 4.09293C203.395 4.09293 203.717 4.12702 204.081 4.1952C204.448 4.25959 204.803 4.39406 205.143 4.59861C205.488 4.80316 205.774 5.11187 206.001 5.52475C206.229 5.93763 206.342 6.49066 206.342 7.18384V12.9338H205.001V11.752H204.933C204.842 11.9414 204.691 12.1441 204.479 12.36C204.267 12.5759 203.984 12.7596 203.632 12.9111C203.28 13.0626 202.85 13.1384 202.342 13.1384ZM202.547 11.9338C203.077 11.9338 203.524 11.8297 203.888 11.6213C204.255 11.413 204.532 11.1441 204.717 10.8145C204.907 10.485 205.001 10.1384 205.001 9.77475V8.54747C204.945 8.61566 204.82 8.67816 204.626 8.73497C204.437 8.788 204.217 8.83535 203.967 8.87702C203.721 8.9149 203.481 8.94899 203.246 8.97929C203.015 9.00581 202.827 9.02853 202.683 9.04747C202.335 9.09293 202.009 9.16679 201.706 9.26907C201.407 9.36755 201.164 9.51717 200.979 9.71793C200.797 9.9149 200.706 10.1838 200.706 10.5247C200.706 10.9907 200.878 11.3429 201.223 11.5816C201.571 11.8164 202.013 11.9338 202.547 11.9338ZM208.79 16.2066V4.20656H210.085V5.59293H210.244C210.343 5.44141 210.479 5.24823 210.653 5.01338C210.831 4.77475 211.085 4.56263 211.415 4.37702C211.748 4.18763 212.199 4.09293 212.767 4.09293C213.502 4.09293 214.15 4.27664 214.71 4.64406C215.271 5.01149 215.708 5.53232 216.023 6.20656C216.337 6.88081 216.494 7.67626 216.494 8.59293C216.494 9.51717 216.337 10.3183 216.023 10.9963C215.708 11.6706 215.273 12.1933 214.716 12.5645C214.159 12.9319 213.517 13.1157 212.79 13.1157C212.229 13.1157 211.78 13.0229 211.443 12.8372C211.106 12.6479 210.847 12.4338 210.665 12.1952C210.483 11.9528 210.343 11.752 210.244 11.5929H210.131V16.2066H208.79ZM210.108 8.5702C210.108 9.22929 210.205 9.81073 210.398 10.3145C210.591 10.8145 210.873 11.2066 211.244 11.4907C211.616 11.771 212.07 11.9111 212.608 11.9111C213.169 11.9111 213.636 11.7634 214.011 11.4679C214.39 11.1687 214.674 10.7672 214.864 10.2634C215.057 9.75581 215.153 9.19141 215.153 8.5702C215.153 7.95657 215.059 7.40353 214.869 6.91111C214.684 6.4149 214.402 6.02285 214.023 5.73497C213.648 5.44331 213.176 5.29747 212.608 5.29747C212.063 5.29747 211.604 5.43573 211.233 5.71225C210.862 5.98497 210.581 6.36755 210.392 6.85997C210.203 7.34861 210.108 7.91869 210.108 8.5702ZM219.881 7.68384V12.9338H218.54V1.29747H219.881V5.5702H219.994C220.199 5.11944 220.506 4.76149 220.915 4.49634C221.328 4.2274 221.877 4.09293 222.562 4.09293C223.157 4.09293 223.678 4.21225 224.125 4.45088C224.572 4.68573 224.919 5.04747 225.165 5.53611C225.415 6.02096 225.54 6.63838 225.54 7.38838V12.9338H224.199V7.47929C224.199 6.78611 224.019 6.25013 223.659 5.87134C223.303 5.48876 222.809 5.29747 222.176 5.29747C221.737 5.29747 221.343 5.39028 220.994 5.57588C220.65 5.76149 220.377 6.03232 220.176 6.38838C219.979 6.74444 219.881 7.17626 219.881 7.68384ZM227.993 12.9338V4.20656H229.334V12.9338H227.993ZM228.675 2.75202C228.413 2.75202 228.188 2.663 227.999 2.48497C227.813 2.30694 227.72 2.09293 227.72 1.84293C227.72 1.59293 227.813 1.37891 227.999 1.20088C228.188 1.02285 228.413 0.933838 228.675 0.933838C228.936 0.933838 229.16 1.02285 229.345 1.20088C229.535 1.37891 229.629 1.59293 229.629 1.84293C229.629 2.09293 229.535 2.30694 229.345 2.48497C229.16 2.663 228.936 2.75202 228.675 2.75202ZM235.335 13.1157C234.517 13.1157 233.813 12.9225 233.222 12.5361C232.631 12.1497 232.176 11.6175 231.858 10.9395C231.54 10.2615 231.381 9.48687 231.381 8.61566C231.381 7.72929 231.544 6.9471 231.869 6.26906C232.199 5.58725 232.657 5.05505 233.244 4.67247C233.835 4.28611 234.525 4.09293 235.312 4.09293C235.926 4.09293 236.479 4.20657 236.972 4.43384C237.464 4.66111 237.867 4.97929 238.182 5.38838C238.496 5.79747 238.691 6.27475 238.767 6.8202H237.426C237.324 6.42247 237.097 6.0702 236.744 5.76338C236.396 5.45278 235.926 5.29747 235.335 5.29747C234.813 5.29747 234.354 5.43384 233.96 5.70656C233.57 5.9755 233.265 6.35619 233.045 6.84861C232.83 7.33725 232.722 7.91111 232.722 8.5702C232.722 9.24444 232.828 9.83157 233.04 10.3316C233.256 10.8316 233.559 11.2198 233.949 11.4963C234.343 11.7729 234.805 11.9111 235.335 11.9111C235.684 11.9111 236 11.8505 236.284 11.7293C236.568 11.6081 236.809 11.4338 237.006 11.2066C237.203 10.9793 237.343 10.7066 237.426 10.3884H238.767C238.691 10.9035 238.504 11.3675 238.205 11.7804C237.909 12.1895 237.517 12.5153 237.028 12.7577C236.544 12.9963 235.979 13.1157 235.335 13.1157ZM242.727 11.3429L242.636 11.9566C242.572 12.3884 242.473 12.8505 242.341 13.3429C242.212 13.8354 242.078 14.2994 241.938 14.735C241.797 15.1706 241.682 15.5172 241.591 15.7747H240.568C240.617 15.5323 240.682 15.2122 240.761 14.8145C240.841 14.4168 240.92 13.9717 241 13.4793C241.083 12.9907 241.152 12.4907 241.205 11.9793L241.273 11.3429H242.727ZM249.893 12.9338V1.29747H253.825C254.738 1.29747 255.484 1.46225 256.064 1.79179C256.647 2.11755 257.079 2.55884 257.359 3.11566C257.64 3.67247 257.78 4.29369 257.78 4.97929C257.78 5.6649 257.64 6.288 257.359 6.84861C257.083 7.40922 256.655 7.85619 256.075 8.18952C255.496 8.51907 254.753 8.68384 253.848 8.68384H251.03V7.43384H253.803C254.428 7.43384 254.929 7.32588 255.308 7.10997C255.687 6.89406 255.962 6.6024 256.132 6.23497C256.306 5.86376 256.393 5.4452 256.393 4.97929C256.393 4.51338 256.306 4.09672 256.132 3.72929C255.962 3.36187 255.685 3.07399 255.303 2.86566C254.92 2.65353 254.412 2.54747 253.78 2.54747H251.303V12.9338H249.893ZM259.868 12.9338V4.20656H261.163V5.52475H261.254C261.413 5.09293 261.701 4.74255 262.118 4.47361C262.535 4.20467 263.004 4.0702 263.527 4.0702C263.625 4.0702 263.749 4.07209 263.896 4.07588C264.044 4.07967 264.156 4.08535 264.232 4.09293V5.45656C264.186 5.4452 264.082 5.42816 263.919 5.40543C263.76 5.37891 263.591 5.36566 263.413 5.36566C262.989 5.36566 262.61 5.45467 262.277 5.6327C261.947 5.80694 261.686 6.04937 261.493 6.35997C261.304 6.66679 261.209 7.01717 261.209 7.41111V12.9338H259.868ZM265.821 12.9338V4.20656H267.162V12.9338H265.821ZM266.503 2.75202C266.241 2.75202 266.016 2.663 265.827 2.48497C265.641 2.30694 265.548 2.09293 265.548 1.84293C265.548 1.59293 265.641 1.37891 265.827 1.20088C266.016 1.02285 266.241 0.933838 266.503 0.933838C266.764 0.933838 266.988 1.02285 267.173 1.20088C267.363 1.37891 267.457 1.59293 267.457 1.84293C267.457 2.09293 267.363 2.30694 267.173 2.48497C266.988 2.663 266.764 2.75202 266.503 2.75202ZM270.959 7.68384V12.9338H269.618V4.20656H270.913V5.5702H271.027C271.232 5.12702 271.542 4.77096 271.959 4.50202C272.375 4.22929 272.913 4.09293 273.572 4.09293C274.163 4.09293 274.68 4.21414 275.124 4.45656C275.567 4.6952 275.911 5.05884 276.158 5.54747C276.404 6.03232 276.527 6.64596 276.527 7.38838V12.9338H275.186V7.47929C275.186 6.79369 275.008 6.2596 274.652 5.87702C274.296 5.49066 273.807 5.29747 273.186 5.29747C272.758 5.29747 272.375 5.39028 272.038 5.57588C271.705 5.76149 271.442 6.03232 271.249 6.38838C271.055 6.74444 270.959 7.17626 270.959 7.68384ZM282.773 4.20656V5.34293H278.25V4.20656H282.773ZM279.568 2.11566H280.909V10.4338C280.909 10.8126 280.964 11.0967 281.074 11.2861C281.188 11.4717 281.331 11.5967 281.506 11.6611C281.684 11.7217 281.871 11.752 282.068 11.752C282.216 11.752 282.337 11.7444 282.432 11.7293C282.527 11.7104 282.602 11.6952 282.659 11.6838L282.932 12.8884C282.841 12.9225 282.714 12.9566 282.551 12.9907C282.388 13.0285 282.182 13.0475 281.932 13.0475C281.553 13.0475 281.182 12.966 280.818 12.8032C280.458 12.6403 280.159 12.3922 279.92 12.0588C279.686 11.7255 279.568 11.305 279.568 10.7975V2.11566ZM292.585 13.0929C291.82 13.0929 291.161 12.9528 290.608 12.6725C290.055 12.3922 289.629 12.0077 289.33 11.5191C289.03 11.0304 288.881 10.4717 288.881 9.84293C288.881 9.35808 288.983 8.92816 289.188 8.55316C289.396 8.17437 289.682 7.82399 290.045 7.50202C290.413 7.17626 290.835 6.8505 291.312 6.52475L292.994 5.27475C293.324 5.05884 293.587 4.82778 293.784 4.58156C293.985 4.33535 294.085 4.01338 294.085 3.61566C294.085 3.3202 293.955 3.03422 293.693 2.7577C293.436 2.48119 293.097 2.34293 292.676 2.34293C292.381 2.34293 292.119 2.41869 291.892 2.5702C291.669 2.71793 291.492 2.90732 291.364 3.13838C291.239 3.36566 291.176 3.6005 291.176 3.84293C291.176 4.11566 291.25 4.39217 291.398 4.67247C291.549 4.94899 291.741 5.23308 291.972 5.52475C292.206 5.81263 292.449 6.10808 292.699 6.41111L298.04 12.9338H296.426L292.017 7.61566C291.608 7.12323 291.237 6.67626 290.903 6.27475C290.57 5.87323 290.305 5.4774 290.108 5.08725C289.911 4.6971 289.812 4.27475 289.812 3.8202C289.812 3.29747 289.928 2.83914 290.159 2.4452C290.394 2.04747 290.722 1.73876 291.142 1.51906C291.566 1.29558 292.063 1.18384 292.631 1.18384C293.214 1.18384 293.716 1.29747 294.136 1.52475C294.557 1.74823 294.881 2.04558 295.108 2.41679C295.335 2.78422 295.449 3.18384 295.449 3.61566C295.449 4.17247 295.311 4.65543 295.034 5.06452C294.758 5.47361 294.381 5.85429 293.903 6.20656L291.585 7.93384C291.063 8.3202 290.708 8.6952 290.523 9.05884C290.337 9.42247 290.244 9.68384 290.244 9.84293C290.244 10.2066 290.339 10.5456 290.528 10.86C290.718 11.1744 290.985 11.4282 291.33 11.6213C291.674 11.8145 292.078 11.9111 292.54 11.9111C292.979 11.9111 293.407 11.8183 293.824 11.6327C294.241 11.4433 294.617 11.1706 294.955 10.8145C295.295 10.4585 295.564 10.0304 295.761 9.53043C295.962 9.03043 296.062 8.46793 296.062 7.84293H297.358C297.358 8.61566 297.269 9.24634 297.091 9.73497C296.913 10.2236 296.712 10.6062 296.489 10.8827C296.265 11.1592 296.085 11.3657 295.949 11.502C295.903 11.5588 295.862 11.6157 295.824 11.6725C295.786 11.7293 295.744 11.7861 295.699 11.8429C295.324 12.2634 294.85 12.5778 294.278 12.7861C293.706 12.9907 293.142 13.0929 292.585 13.0929ZM304.206 12.9338V1.29747H308.138C309.051 1.29747 309.797 1.46225 310.376 1.79179C310.96 2.11755 311.392 2.55884 311.672 3.11566C311.952 3.67247 312.092 4.29369 312.092 4.97929C312.092 5.6649 311.952 6.288 311.672 6.84861C311.395 7.40922 310.967 7.85619 310.388 8.18952C309.808 8.51907 309.066 8.68384 308.161 8.68384H305.342V7.43384H308.115C308.74 7.43384 309.242 7.32588 309.621 7.10997C310 6.89406 310.274 6.6024 310.445 6.23497C310.619 5.86376 310.706 5.4452 310.706 4.97929C310.706 4.51338 310.619 4.09672 310.445 3.72929C310.274 3.36187 309.998 3.07399 309.615 2.86566C309.232 2.65353 308.725 2.54747 308.092 2.54747H305.615V12.9338H304.206ZM319.68 9.36566V4.20656H321.021V12.9338H319.68V11.4566H319.589C319.385 11.8997 319.067 12.2766 318.635 12.5872C318.203 12.8941 317.658 13.0475 316.999 13.0475C316.453 13.0475 315.968 12.9282 315.544 12.6895C315.12 12.4471 314.786 12.0835 314.544 11.5986C314.302 11.11 314.18 10.4944 314.18 9.75202V4.20656H315.521V9.66111C315.521 10.2975 315.699 10.805 316.055 11.1838C316.415 11.5626 316.874 11.752 317.43 11.752C317.764 11.752 318.103 11.6668 318.447 11.4963C318.796 11.3259 319.088 11.0645 319.322 10.7122C319.561 10.36 319.68 9.91111 319.68 9.36566ZM323.659 12.9338V1.29747H325V5.59293H325.114C325.212 5.44141 325.348 5.24823 325.523 5.01338C325.701 4.77475 325.955 4.56263 326.284 4.37702C326.617 4.18763 327.068 4.09293 327.636 4.09293C328.371 4.09293 329.019 4.27664 329.58 4.64406C330.14 5.01149 330.578 5.53232 330.892 6.20656C331.206 6.88081 331.364 7.67626 331.364 8.59293C331.364 9.51717 331.206 10.3183 330.892 10.9963C330.578 11.6706 330.142 12.1933 329.585 12.5645C329.028 12.9319 328.386 13.1157 327.659 13.1157C327.098 13.1157 326.65 13.0229 326.312 12.8372C325.975 12.6479 325.716 12.4338 325.534 12.1952C325.352 11.9528 325.212 11.752 325.114 11.5929H324.955V12.9338H323.659ZM324.977 8.5702C324.977 9.22929 325.074 9.81073 325.267 10.3145C325.46 10.8145 325.742 11.2066 326.114 11.4907C326.485 11.771 326.939 11.9111 327.477 11.9111C328.038 11.9111 328.506 11.7634 328.881 11.4679C329.259 11.1687 329.544 10.7672 329.733 10.2634C329.926 9.75581 330.023 9.19141 330.023 8.5702C330.023 7.95657 329.928 7.40353 329.739 6.91111C329.553 6.4149 329.271 6.02285 328.892 5.73497C328.517 5.44331 328.045 5.29747 327.477 5.29747C326.932 5.29747 326.473 5.43573 326.102 5.71225C325.731 5.98497 325.451 6.36755 325.261 6.85997C325.072 7.34861 324.977 7.91869 324.977 8.5702ZM334.756 1.29747V12.9338H333.415V1.29747H334.756ZM337.212 12.9338V4.20656H338.553V12.9338H337.212ZM337.893 2.75202C337.632 2.75202 337.407 2.663 337.217 2.48497C337.032 2.30694 336.939 2.09293 336.939 1.84293C336.939 1.59293 337.032 1.37891 337.217 1.20088C337.407 1.02285 337.632 0.933838 337.893 0.933838C338.155 0.933838 338.378 1.02285 338.564 1.20088C338.753 1.37891 338.848 1.59293 338.848 1.84293C338.848 2.09293 338.753 2.30694 338.564 2.48497C338.378 2.663 338.155 2.75202 337.893 2.75202ZM347.19 6.16111L345.986 6.50202C345.91 6.30126 345.798 6.10619 345.651 5.91679C345.507 5.72361 345.31 5.56452 345.06 5.43952C344.81 5.31452 344.49 5.25202 344.099 5.25202C343.565 5.25202 343.12 5.37513 342.764 5.62134C342.412 5.86376 342.236 6.17247 342.236 6.54747C342.236 6.88081 342.357 7.14406 342.599 7.33725C342.842 7.53043 343.221 7.69141 343.736 7.8202L345.031 8.13838C345.812 8.32778 346.393 8.61755 346.776 9.0077C347.158 9.39407 347.349 9.89217 347.349 10.502C347.349 11.002 347.205 11.449 346.918 11.8429C346.634 12.2369 346.236 12.5475 345.724 12.7747C345.213 13.002 344.618 13.1157 343.94 13.1157C343.05 13.1157 342.313 12.9225 341.73 12.5361C341.147 12.1497 340.777 11.5854 340.622 10.8429L341.895 10.5247C342.016 10.9944 342.245 11.3467 342.582 11.5816C342.923 11.8164 343.368 11.9338 343.918 11.9338C344.543 11.9338 345.039 11.8013 345.406 11.5361C345.777 11.2672 345.963 10.9452 345.963 10.5702C345.963 10.2672 345.857 10.0134 345.645 9.80884C345.433 9.6005 345.107 9.4452 344.668 9.34293L343.213 9.00202C342.414 8.81263 341.827 8.51907 341.452 8.12134C341.08 7.71982 340.895 7.21793 340.895 6.61566C340.895 6.12323 341.033 5.68763 341.31 5.30884C341.59 4.93005 341.971 4.6327 342.452 4.41679C342.937 4.20088 343.486 4.09293 344.099 4.09293C344.963 4.09293 345.641 4.28232 346.134 4.66111C346.63 5.0399 346.982 5.5399 347.19 6.16111ZM350.709 7.68384V12.9338H349.368V1.29747H350.709V5.5702H350.822C351.027 5.11944 351.334 4.76149 351.743 4.49634C352.156 4.2274 352.705 4.09293 353.391 4.09293C353.985 4.09293 354.506 4.21225 354.953 4.45088C355.4 4.68573 355.747 5.04747 355.993 5.53611C356.243 6.02096 356.368 6.63838 356.368 7.38838V12.9338H355.027V7.47929C355.027 6.78611 354.847 6.25013 354.487 5.87134C354.131 5.48876 353.637 5.29747 353.004 5.29747C352.565 5.29747 352.171 5.39028 351.822 5.57588C351.478 5.76149 351.205 6.03232 351.004 6.38838C350.807 6.74444 350.709 7.17626 350.709 7.68384ZM358.821 12.9338V4.20656H360.162V12.9338H358.821ZM359.503 2.75202C359.241 2.75202 359.016 2.663 358.827 2.48497C358.641 2.30694 358.548 2.09293 358.548 1.84293C358.548 1.59293 358.641 1.37891 358.827 1.20088C359.016 1.02285 359.241 0.933838 359.503 0.933838C359.764 0.933838 359.988 1.02285 360.173 1.20088C360.363 1.37891 360.457 1.59293 360.457 1.84293C360.457 2.09293 360.363 2.30694 360.173 2.48497C359.988 2.663 359.764 2.75202 359.503 2.75202ZM363.959 7.68384V12.9338H362.618V4.20656H363.913V5.5702H364.027C364.232 5.12702 364.542 4.77096 364.959 4.50202C365.375 4.22929 365.913 4.09293 366.572 4.09293C367.163 4.09293 367.68 4.21414 368.124 4.45656C368.567 4.6952 368.911 5.05884 369.158 5.54747C369.404 6.03232 369.527 6.64596 369.527 7.38838V12.9338H368.186V7.47929C368.186 6.79369 368.008 6.2596 367.652 5.87702C367.296 5.49066 366.807 5.29747 366.186 5.29747C365.758 5.29747 365.375 5.39028 365.038 5.57588C364.705 5.76149 364.442 6.03232 364.249 6.38838C364.055 6.74444 363.959 7.17626 363.959 7.68384ZM375.5 16.3884C374.852 16.3884 374.295 16.3051 373.83 16.1384C373.364 15.9755 372.975 15.7596 372.665 15.4907C372.358 15.2255 372.114 14.9414 371.932 14.6384L373 13.8884C373.121 14.0475 373.275 14.2293 373.46 14.4338C373.646 14.6422 373.9 14.8221 374.222 14.9736C374.547 15.1289 374.973 15.2066 375.5 15.2066C376.205 15.2066 376.786 15.0361 377.244 14.6952C377.703 14.3543 377.932 13.8202 377.932 13.0929V11.3202H377.818C377.72 11.4793 377.58 11.6763 377.398 11.9111C377.22 12.1422 376.962 12.3486 376.625 12.5304C376.292 12.7085 375.841 12.7975 375.273 12.7975C374.568 12.7975 373.936 12.6308 373.375 12.2975C372.818 11.9641 372.377 11.4793 372.051 10.8429C371.729 10.2066 371.568 9.43384 371.568 8.52475C371.568 7.63081 371.725 6.8524 372.04 6.18952C372.354 5.52285 372.792 5.0077 373.352 4.64406C373.913 4.27664 374.561 4.09293 375.295 4.09293C375.864 4.09293 376.314 4.18763 376.648 4.37702C376.985 4.56263 377.242 4.77475 377.42 5.01338C377.602 5.24823 377.742 5.44141 377.841 5.59293H377.977V4.20656H379.273V13.1838C379.273 13.9338 379.102 14.5437 378.761 15.0134C378.424 15.4869 377.97 15.8335 377.398 16.0532C376.83 16.2766 376.197 16.3884 375.5 16.3884ZM375.455 11.5929C375.992 11.5929 376.447 11.4698 376.818 11.2236C377.189 10.9774 377.472 10.6232 377.665 10.1611C377.858 9.69899 377.955 9.14596 377.955 8.50202C377.955 7.87323 377.86 7.31831 377.67 6.83725C377.481 6.35619 377.201 5.97929 376.83 5.70656C376.458 5.43384 376 5.29747 375.455 5.29747C374.886 5.29747 374.413 5.44141 374.034 5.72929C373.659 6.01717 373.377 6.40353 373.188 6.88838C373.002 7.37323 372.909 7.91111 372.909 8.50202C372.909 9.10808 373.004 9.64406 373.193 10.11C373.386 10.5721 373.67 10.9357 374.045 11.2009C374.424 11.4622 374.894 11.5929 375.455 11.5929ZM2.81818 28.2975V39.9338H1.40909V28.2975H2.81818ZM6.80256 34.6838V39.9338H5.46165V31.2066H6.7571V32.5702H6.87074C7.07528 32.127 7.38589 31.771 7.80256 31.502C8.21922 31.2293 8.7571 31.0929 9.41619 31.0929C10.0071 31.0929 10.5241 31.2141 10.9673 31.4566C11.4105 31.6952 11.7552 32.0588 12.0014 32.5475C12.2476 33.0323 12.3707 33.646 12.3707 34.3884V39.9338H11.0298V34.4793C11.0298 33.7937 10.8518 33.2596 10.4957 32.877C10.1397 32.4907 9.65104 32.2975 9.02983 32.2975C8.6018 32.2975 8.21922 32.3903 7.8821 32.5759C7.54877 32.7615 7.28551 33.0323 7.09233 33.3884C6.89915 33.7444 6.80256 34.1763 6.80256 34.6838ZM18.1165 40.1157C17.3892 40.1157 16.7472 39.9319 16.1903 39.5645C15.6335 39.1933 15.1979 38.6706 14.8835 37.9963C14.5691 37.3183 14.4119 36.5172 14.4119 35.5929C14.4119 34.6763 14.5691 33.8808 14.8835 33.2066C15.1979 32.5323 15.6354 32.0115 16.196 31.6441C16.7566 31.2766 17.4044 31.0929 18.1392 31.0929C18.7074 31.0929 19.1563 31.1876 19.4858 31.377C19.8191 31.5626 20.0729 31.7747 20.2472 32.0134C20.4252 32.2482 20.5634 32.4414 20.6619 32.5929H20.7756V28.2975H22.1165V39.9338H20.821V38.5929H20.6619C20.5634 38.752 20.4233 38.9528 20.2415 39.1952C20.0597 39.4338 19.8002 39.6479 19.4631 39.8372C19.1259 40.0229 18.6771 40.1157 18.1165 40.1157ZM18.2983 38.9111C18.8362 38.9111 19.2907 38.771 19.6619 38.4907C20.0331 38.2066 20.3153 37.8145 20.5085 37.3145C20.7017 36.8107 20.7983 36.2293 20.7983 35.5702C20.7983 34.9187 20.7036 34.3486 20.5142 33.86C20.3248 33.3675 20.0445 32.985 19.6733 32.7122C19.3021 32.4357 18.8438 32.2975 18.2983 32.2975C17.7301 32.2975 17.2566 32.4433 16.8778 32.735C16.5028 33.0229 16.2206 33.4149 16.0312 33.9111C15.8456 34.4035 15.7528 34.9566 15.7528 35.5702C15.7528 36.1914 15.8475 36.7558 16.0369 37.2634C16.2301 37.7672 16.5142 38.1687 16.8892 38.4679C17.268 38.7634 17.7377 38.9111 18.2983 38.9111ZM30.2585 36.3657V31.2066H31.5994V39.9338H30.2585V38.4566H30.1676C29.9631 38.8997 29.6449 39.2766 29.2131 39.5872C28.7813 39.8941 28.2358 40.0475 27.5767 40.0475C27.0312 40.0475 26.5464 39.9282 26.1222 39.6895C25.6979 39.4471 25.3646 39.0835 25.1222 38.5986C24.8797 38.11 24.7585 37.4944 24.7585 36.752V31.2066H26.0994V36.6611C26.0994 37.2975 26.2775 37.805 26.6335 38.1838C26.9934 38.5626 27.4517 38.752 28.0085 38.752C28.3419 38.752 28.6809 38.6668 29.0256 38.4963C29.3741 38.3259 29.6657 38.0645 29.9006 37.7122C30.1392 37.36 30.2585 36.9111 30.2585 36.3657ZM40.2372 33.1611L39.0327 33.502C38.9569 33.3013 38.8452 33.1062 38.6974 32.9168C38.5535 32.7236 38.3565 32.5645 38.1065 32.4395C37.8565 32.3145 37.5365 32.252 37.1463 32.252C36.6122 32.252 36.1671 32.3751 35.8111 32.6213C35.4588 32.8638 35.2827 33.1725 35.2827 33.5475C35.2827 33.8808 35.4039 34.1441 35.6463 34.3372C35.8887 34.5304 36.2675 34.6914 36.7827 34.8202L38.0781 35.1384C38.8584 35.3278 39.4399 35.6175 39.8224 36.0077C40.205 36.3941 40.3963 36.8922 40.3963 37.502C40.3963 38.002 40.2524 38.449 39.9645 38.8429C39.6804 39.2369 39.2827 39.5475 38.7713 39.7747C38.2599 40.002 37.6652 40.1157 36.9872 40.1157C36.0971 40.1157 35.3603 39.9225 34.777 39.5361C34.1937 39.1497 33.8243 38.5854 33.669 37.8429L34.9418 37.5247C35.063 37.9944 35.2921 38.3467 35.6293 38.5816C35.9702 38.8164 36.4152 38.9338 36.9645 38.9338C37.5895 38.9338 38.0857 38.8013 38.4531 38.5361C38.8243 38.2672 39.0099 37.9452 39.0099 37.5702C39.0099 37.2672 38.9039 37.0134 38.6918 36.8088C38.4796 36.6005 38.1539 36.4452 37.7145 36.3429L36.2599 36.002C35.4607 35.8126 34.8736 35.5191 34.4986 35.1213C34.1274 34.7198 33.9418 34.2179 33.9418 33.6157C33.9418 33.1232 34.08 32.6876 34.3565 32.3088C34.6368 31.93 35.0175 31.6327 35.4986 31.4168C35.9834 31.2009 36.5327 31.0929 37.1463 31.0929C38.0099 31.0929 38.688 31.2823 39.1804 31.6611C39.6766 32.0399 40.0289 32.5399 40.2372 33.1611ZM46.2102 31.2066V32.3429H41.6875V31.2066H46.2102ZM43.0057 29.1157H44.3466V37.4338C44.3466 37.8126 44.4015 38.0967 44.5114 38.2861C44.625 38.4717 44.7689 38.5967 44.9432 38.6611C45.1212 38.7217 45.3087 38.752 45.5057 38.752C45.6534 38.752 45.7746 38.7444 45.8693 38.7293C45.964 38.7104 46.0398 38.6952 46.0966 38.6838L46.3693 39.8884C46.2784 39.9225 46.1515 39.9566 45.9886 39.9907C45.8258 40.0285 45.6193 40.0475 45.3693 40.0475C44.9905 40.0475 44.6193 39.966 44.2557 39.8032C43.8958 39.6403 43.5966 39.3922 43.358 39.0588C43.1231 38.7255 43.0057 38.305 43.0057 37.7975V29.1157ZM48.2273 39.9338V31.2066H49.5227V32.5247H49.6136C49.7727 32.0929 50.0606 31.7425 50.4773 31.4736C50.8939 31.2047 51.3636 31.0702 51.8864 31.0702C51.9848 31.0702 52.108 31.0721 52.2557 31.0759C52.4034 31.0797 52.5152 31.0854 52.5909 31.0929V32.4566C52.5455 32.4452 52.4413 32.4282 52.2784 32.4054C52.1193 32.3789 51.9508 32.3657 51.7727 32.3657C51.3485 32.3657 50.9697 32.4547 50.6364 32.6327C50.3068 32.8069 50.0455 33.0494 49.8523 33.36C49.6629 33.6668 49.5682 34.0172 49.5682 34.4111V39.9338H48.2273ZM54.1804 39.9338V31.2066H55.5213V39.9338H54.1804ZM54.8622 29.752C54.6009 29.752 54.3755 29.663 54.1861 29.485C54.0005 29.3069 53.9077 29.0929 53.9077 28.8429C53.9077 28.5929 54.0005 28.3789 54.1861 28.2009C54.3755 28.0229 54.6009 27.9338 54.8622 27.9338C55.1236 27.9338 55.3471 28.0229 55.5327 28.2009C55.7221 28.3789 55.8168 28.5929 55.8168 28.8429C55.8168 29.0929 55.7221 29.3069 55.5327 29.485C55.3471 29.663 55.1236 29.752 54.8622 29.752ZM64.1591 33.1611L62.9545 33.502C62.8788 33.3013 62.767 33.1062 62.6193 32.9168C62.4754 32.7236 62.2784 32.5645 62.0284 32.4395C61.7784 32.3145 61.4583 32.252 61.0682 32.252C60.5341 32.252 60.089 32.3751 59.733 32.6213C59.3807 32.8638 59.2045 33.1725 59.2045 33.5475C59.2045 33.8808 59.3258 34.1441 59.5682 34.3372C59.8106 34.5304 60.1894 34.6914 60.7045 34.8202L62 35.1384C62.7803 35.3278 63.3617 35.6175 63.7443 36.0077C64.1269 36.3941 64.3182 36.8922 64.3182 37.502C64.3182 38.002 64.1742 38.449 63.8864 38.8429C63.6023 39.2369 63.2045 39.5475 62.6932 39.7747C62.1818 40.002 61.5871 40.1157 60.9091 40.1157C60.0189 40.1157 59.2822 39.9225 58.6989 39.5361C58.1155 39.1497 57.7462 38.5854 57.5909 37.8429L58.8636 37.5247C58.9848 37.9944 59.214 38.3467 59.5511 38.5816C59.892 38.8164 60.3371 38.9338 60.8864 38.9338C61.5114 38.9338 62.0076 38.8013 62.375 38.5361C62.7462 38.2672 62.9318 37.9452 62.9318 37.5702C62.9318 37.2672 62.8258 37.0134 62.6136 36.8088C62.4015 36.6005 62.0758 36.4452 61.6364 36.3429L60.1818 36.002C59.3826 35.8126 58.7955 35.5191 58.4205 35.1213C58.0492 34.7198 57.8636 34.2179 57.8636 33.6157C57.8636 33.1232 58.0019 32.6876 58.2784 32.3088C58.5587 31.93 58.9394 31.6327 59.4205 31.4168C59.9053 31.2009 60.4545 31.0929 61.0682 31.0929C61.9318 31.0929 62.6098 31.2823 63.1023 31.6611C63.5985 32.0399 63.9508 32.5399 64.1591 33.1611ZM71.0185 39.9338V28.2975H77.9957V29.5475H72.4276V33.4793H77.473V34.7293H72.4276V39.9338H71.0185ZM83.1321 40.1157C82.3442 40.1157 81.6529 39.9282 81.0582 39.5532C80.4673 39.1782 80.0052 38.6535 79.6719 37.9793C79.3423 37.305 79.1776 36.5172 79.1776 35.6157C79.1776 34.7066 79.3423 33.913 79.6719 33.235C80.0052 32.5569 80.4673 32.0304 81.0582 31.6554C81.6529 31.2804 82.3442 31.0929 83.1321 31.0929C83.92 31.0929 84.6094 31.2804 85.2003 31.6554C85.795 32.0304 86.2571 32.5569 86.5866 33.235C86.92 33.913 87.0866 34.7066 87.0866 35.6157C87.0866 36.5172 86.92 37.305 86.5866 37.9793C86.2571 38.6535 85.795 39.1782 85.2003 39.5532C84.6094 39.9282 83.92 40.1157 83.1321 40.1157ZM83.1321 38.9111C83.7306 38.9111 84.223 38.7577 84.6094 38.4509C84.9957 38.1441 85.2817 37.7407 85.4673 37.2407C85.6529 36.7407 85.7457 36.199 85.7457 35.6157C85.7457 35.0323 85.6529 34.4888 85.4673 33.985C85.2817 33.4812 84.9957 33.074 84.6094 32.7634C84.223 32.4528 83.7306 32.2975 83.1321 32.2975C82.5336 32.2975 82.0412 32.4528 81.6548 32.7634C81.2685 33.074 80.9825 33.4812 80.7969 33.985C80.6113 34.4888 80.5185 35.0323 80.5185 35.6157C80.5185 36.199 80.6113 36.7407 80.7969 37.2407C80.9825 37.7407 81.2685 38.1441 81.6548 38.4509C82.0412 38.7577 82.5336 38.9111 83.1321 38.9111ZM89.1335 39.9338V31.2066H90.429V32.5247H90.5199C90.679 32.0929 90.9669 31.7425 91.3835 31.4736C91.8002 31.2047 92.2699 31.0702 92.7926 31.0702C92.8911 31.0702 93.0142 31.0721 93.1619 31.0759C93.3097 31.0797 93.4214 31.0854 93.4972 31.0929V32.4566C93.4517 32.4452 93.3475 32.4282 93.1847 32.4054C93.0256 32.3789 92.857 32.3657 92.679 32.3657C92.2547 32.3657 91.8759 32.4547 91.5426 32.6327C91.2131 32.8069 90.9517 33.0494 90.7585 33.36C90.5691 33.6668 90.4744 34.0172 90.4744 34.4111V39.9338H89.1335ZM99.7685 39.9338V28.2975H103.7C104.613 28.2975 105.359 28.4622 105.939 28.7918C106.522 29.1175 106.954 29.5588 107.234 30.1157C107.515 30.6725 107.655 31.2937 107.655 31.9793C107.655 32.6649 107.515 33.288 107.234 33.8486C106.958 34.4092 106.53 34.8562 105.95 35.1895C105.371 35.5191 104.628 35.6838 103.723 35.6838H100.905V34.4338H103.678C104.303 34.4338 104.804 34.3259 105.183 34.11C105.562 33.8941 105.837 33.6024 106.007 33.235C106.181 32.8638 106.268 32.4452 106.268 31.9793C106.268 31.5134 106.181 31.0967 106.007 30.7293C105.837 30.3619 105.56 30.074 105.178 29.8657C104.795 29.6535 104.287 29.5475 103.655 29.5475H101.178V39.9338H99.7685ZM109.743 39.9338V31.2066H111.038V32.5247H111.129C111.288 32.0929 111.576 31.7425 111.993 31.4736C112.41 31.2047 112.879 31.0702 113.402 31.0702C113.5 31.0702 113.624 31.0721 113.771 31.0759C113.919 31.0797 114.031 31.0854 114.107 31.0929V32.4566C114.061 32.4452 113.957 32.4282 113.794 32.4054C113.635 32.3789 113.466 32.3657 113.288 32.3657C112.864 32.3657 112.485 32.4547 112.152 32.6327C111.822 32.8069 111.561 33.0494 111.368 33.36C111.179 33.6668 111.084 34.0172 111.084 34.4111V39.9338H109.743ZM119.089 40.1157C118.249 40.1157 117.523 39.9301 116.913 39.5588C116.307 39.1838 115.839 38.6611 115.51 37.9907C115.184 37.3164 115.021 36.5323 115.021 35.6384C115.021 34.7444 115.184 33.9566 115.51 33.2747C115.839 32.5891 116.298 32.055 116.885 31.6725C117.476 31.2861 118.165 31.0929 118.953 31.0929C119.408 31.0929 119.857 31.1687 120.3 31.3202C120.743 31.4717 121.146 31.7179 121.51 32.0588C121.874 32.396 122.163 32.8429 122.379 33.3997C122.595 33.9566 122.703 34.6422 122.703 35.4566V36.0247H115.976V34.8657H121.339C121.339 34.3732 121.241 33.9338 121.044 33.5475C120.851 33.1611 120.574 32.8562 120.214 32.6327C119.858 32.4092 119.438 32.2975 118.953 32.2975C118.419 32.2975 117.957 32.43 117.567 32.6952C117.18 32.9566 116.883 33.2975 116.675 33.7179C116.466 34.1384 116.362 34.5891 116.362 35.0702V35.8429C116.362 36.502 116.476 37.0607 116.703 37.5191C116.934 37.9736 117.254 38.3202 117.663 38.5588C118.072 38.7937 118.548 38.9111 119.089 38.9111C119.442 38.9111 119.76 38.8619 120.044 38.7634C120.332 38.6611 120.58 38.5096 120.788 38.3088C120.997 38.1043 121.158 37.8505 121.271 37.5475L122.567 37.9111C122.43 38.3505 122.201 38.7369 121.879 39.0702C121.557 39.3997 121.16 39.6573 120.686 39.8429C120.213 40.0247 119.68 40.1157 119.089 40.1157ZM131.614 31.2066L128.386 39.9338H127.023L123.795 31.2066H125.25L127.659 38.1611H127.75L130.159 31.2066H131.614ZM133.384 39.9338V31.2066H134.724V39.9338H133.384ZM134.065 29.752C133.804 29.752 133.579 29.663 133.389 29.485C133.204 29.3069 133.111 29.0929 133.111 28.8429C133.111 28.5929 133.204 28.3789 133.389 28.2009C133.579 28.0229 133.804 27.9338 134.065 27.9338C134.327 27.9338 134.55 28.0229 134.736 28.2009C134.925 28.3789 135.02 28.5929 135.02 28.8429C135.02 29.0929 134.925 29.3069 134.736 29.485C134.55 29.663 134.327 29.752 134.065 29.752ZM140.839 40.1157C139.999 40.1157 139.273 39.9301 138.663 39.5588C138.057 39.1838 137.589 38.6611 137.26 37.9907C136.934 37.3164 136.771 36.5323 136.771 35.6384C136.771 34.7444 136.934 33.9566 137.26 33.2747C137.589 32.5891 138.048 32.055 138.635 31.6725C139.226 31.2861 139.915 31.0929 140.703 31.0929C141.158 31.0929 141.607 31.1687 142.05 31.3202C142.493 31.4717 142.896 31.7179 143.26 32.0588C143.624 32.396 143.913 32.8429 144.129 33.3997C144.345 33.9566 144.453 34.6422 144.453 35.4566V36.0247H137.726V34.8657H143.089C143.089 34.3732 142.991 33.9338 142.794 33.5475C142.601 33.1611 142.324 32.8562 141.964 32.6327C141.608 32.4092 141.188 32.2975 140.703 32.2975C140.169 32.2975 139.707 32.43 139.317 32.6952C138.93 32.9566 138.633 33.2975 138.425 33.7179C138.216 34.1384 138.112 34.5891 138.112 35.0702V35.8429C138.112 36.502 138.226 37.0607 138.453 37.5191C138.684 37.9736 139.004 38.3202 139.413 38.5588C139.822 38.7937 140.298 38.9111 140.839 38.9111C141.192 38.9111 141.51 38.8619 141.794 38.7634C142.082 38.6611 142.33 38.5096 142.538 38.3088C142.747 38.1043 142.908 37.8505 143.021 37.5475L144.317 37.9111C144.18 38.3505 143.951 38.7369 143.629 39.0702C143.307 39.3997 142.91 39.6573 142.436 39.8429C141.963 40.0247 141.43 40.1157 140.839 40.1157ZM148.47 39.9338L145.811 31.2066H147.22L149.107 37.8884H149.197L151.061 31.2066H152.493L154.334 37.8657H154.425L156.311 31.2066H157.72L155.061 39.9338H153.743L151.834 33.2293H151.697L149.788 39.9338H148.47ZM159.493 39.9338V31.2066H160.834V39.9338H159.493ZM160.175 29.752C159.913 29.752 159.688 29.663 159.499 29.485C159.313 29.3069 159.22 29.0929 159.22 28.8429C159.22 28.5929 159.313 28.3789 159.499 28.2009C159.688 28.0229 159.913 27.9338 160.175 27.9338C160.436 27.9338 160.66 28.0229 160.845 28.2009C161.035 28.3789 161.129 28.5929 161.129 28.8429C161.129 29.0929 161.035 29.3069 160.845 29.485C160.66 29.663 160.436 29.752 160.175 29.752ZM164.631 34.6838V39.9338H163.29V31.2066H164.585V32.5702H164.699C164.903 32.127 165.214 31.771 165.631 31.502C166.047 31.2293 166.585 31.0929 167.244 31.0929C167.835 31.0929 168.352 31.2141 168.795 31.4566C169.239 31.6952 169.583 32.0588 169.83 32.5475C170.076 33.0323 170.199 33.646 170.199 34.3884V39.9338H168.858V34.4793C168.858 33.7937 168.68 33.2596 168.324 32.877C167.968 32.4907 167.479 32.2975 166.858 32.2975C166.43 32.2975 166.047 32.3903 165.71 32.5759C165.377 32.7615 165.114 33.0323 164.92 33.3884C164.727 33.7444 164.631 34.1763 164.631 34.6838ZM176.172 43.3884C175.524 43.3884 174.967 43.3051 174.501 43.1384C174.036 42.9755 173.647 42.7596 173.337 42.4907C173.03 42.2255 172.786 41.9414 172.604 41.6384L173.672 40.8884C173.793 41.0475 173.946 41.2293 174.132 41.4338C174.318 41.6422 174.571 41.8221 174.893 41.9736C175.219 42.1289 175.645 42.2066 176.172 42.2066C176.876 42.2066 177.458 42.0361 177.916 41.6952C178.375 41.3543 178.604 40.8202 178.604 40.0929V38.3202H178.49C178.392 38.4793 178.251 38.6763 178.07 38.9111C177.892 39.1422 177.634 39.3486 177.297 39.5304C176.964 39.7085 176.513 39.7975 175.945 39.7975C175.24 39.7975 174.607 39.6308 174.047 39.2975C173.49 38.9641 173.049 38.4793 172.723 37.8429C172.401 37.2066 172.24 36.4338 172.24 35.5247C172.24 34.6308 172.397 33.8524 172.712 33.1895C173.026 32.5229 173.464 32.0077 174.024 31.6441C174.585 31.2766 175.232 31.0929 175.967 31.0929C176.536 31.0929 176.986 31.1876 177.32 31.377C177.657 31.5626 177.914 31.7747 178.092 32.0134C178.274 32.2482 178.414 32.4414 178.513 32.5929H178.649V31.2066H179.945V40.1838C179.945 40.9338 179.774 41.5437 179.433 42.0134C179.096 42.4869 178.642 42.8335 178.07 43.0532C177.501 43.2766 176.869 43.3884 176.172 43.3884ZM176.126 38.5929C176.664 38.5929 177.119 38.4698 177.49 38.2236C177.861 37.9774 178.143 37.6232 178.337 37.1611C178.53 36.699 178.626 36.146 178.626 35.502C178.626 34.8732 178.532 34.3183 178.342 33.8372C178.153 33.3562 177.873 32.9793 177.501 32.7066C177.13 32.4338 176.672 32.2975 176.126 32.2975C175.558 32.2975 175.085 32.4414 174.706 32.7293C174.331 33.0172 174.049 33.4035 173.859 33.8884C173.674 34.3732 173.581 34.9111 173.581 35.502C173.581 36.1081 173.676 36.6441 173.865 37.11C174.058 37.5721 174.342 37.9357 174.717 38.2009C175.096 38.4622 175.566 38.5929 176.126 38.5929ZM187.558 28.2975L191.013 38.0929H191.149L194.604 28.2975H196.081L191.808 39.9338H190.354L186.081 28.2975H187.558ZM197.712 39.9338V31.2066H199.053V39.9338H197.712ZM198.393 29.752C198.132 29.752 197.907 29.663 197.717 29.485C197.532 29.3069 197.439 29.0929 197.439 28.8429C197.439 28.5929 197.532 28.3789 197.717 28.2009C197.907 28.0229 198.132 27.9338 198.393 27.9338C198.655 27.9338 198.878 28.0229 199.064 28.2009C199.253 28.3789 199.348 28.5929 199.348 28.8429C199.348 29.0929 199.253 29.3069 199.064 29.485C198.878 29.663 198.655 29.752 198.393 29.752ZM207.69 33.1611L206.486 33.502C206.41 33.3013 206.298 33.1062 206.151 32.9168C206.007 32.7236 205.81 32.5645 205.56 32.4395C205.31 32.3145 204.99 32.252 204.599 32.252C204.065 32.252 203.62 32.3751 203.264 32.6213C202.912 32.8638 202.736 33.1725 202.736 33.5475C202.736 33.8808 202.857 34.1441 203.099 34.3372C203.342 34.5304 203.721 34.6914 204.236 34.8202L205.531 35.1384C206.312 35.3278 206.893 35.6175 207.276 36.0077C207.658 36.3941 207.849 36.8922 207.849 37.502C207.849 38.002 207.705 38.449 207.418 38.8429C207.134 39.2369 206.736 39.5475 206.224 39.7747C205.713 40.002 205.118 40.1157 204.44 40.1157C203.55 40.1157 202.813 39.9225 202.23 39.5361C201.647 39.1497 201.277 38.5854 201.122 37.8429L202.395 37.5247C202.516 37.9944 202.745 38.3467 203.082 38.5816C203.423 38.8164 203.868 38.9338 204.418 38.9338C205.043 38.9338 205.539 38.8013 205.906 38.5361C206.277 38.2672 206.463 37.9452 206.463 37.5702C206.463 37.2672 206.357 37.0134 206.145 36.8088C205.933 36.6005 205.607 36.4452 205.168 36.3429L203.713 36.002C202.914 35.8126 202.327 35.5191 201.952 35.1213C201.58 34.7198 201.395 34.2179 201.395 33.6157C201.395 33.1232 201.533 32.6876 201.81 32.3088C202.09 31.93 202.471 31.6327 202.952 31.4168C203.437 31.2009 203.986 31.0929 204.599 31.0929C205.463 31.0929 206.141 31.2823 206.634 31.6611C207.13 32.0399 207.482 32.5399 207.69 33.1611ZM215.368 36.3657V31.2066H216.709V39.9338H215.368V38.4566H215.277C215.072 38.8997 214.754 39.2766 214.322 39.5872C213.891 39.8941 213.345 40.0475 212.686 40.0475C212.141 40.0475 211.656 39.9282 211.232 39.6895C210.807 39.4471 210.474 39.0835 210.232 38.5986C209.989 38.11 209.868 37.4944 209.868 36.752V31.2066H211.209V36.6611C211.209 37.2975 211.387 37.805 211.743 38.1838C212.103 38.5626 212.561 38.752 213.118 38.752C213.451 38.752 213.79 38.6668 214.135 38.4963C214.483 38.3259 214.775 38.0645 215.01 37.7122C215.249 37.36 215.368 36.9111 215.368 36.3657ZM221.733 40.1384C221.18 40.1384 220.678 40.0342 220.227 39.8259C219.777 39.6138 219.419 39.3088 219.153 38.9111C218.888 38.5096 218.756 38.0247 218.756 37.4566C218.756 36.9566 218.854 36.5513 219.051 36.2407C219.248 35.9263 219.511 35.68 219.841 35.502C220.17 35.324 220.534 35.1914 220.932 35.1043C221.333 35.0134 221.737 34.9414 222.142 34.8884C222.672 34.8202 223.102 34.7691 223.432 34.735C223.765 34.6971 224.008 34.6346 224.159 34.5475C224.314 34.4604 224.392 34.3088 224.392 34.0929V34.0475C224.392 33.4869 224.239 33.0513 223.932 32.7407C223.629 32.43 223.169 32.2747 222.551 32.2747C221.911 32.2747 221.409 32.4149 221.045 32.6952C220.682 32.9755 220.426 33.2747 220.278 33.5929L219.006 33.1384C219.233 32.6081 219.536 32.1952 219.915 31.8997C220.297 31.6005 220.714 31.3922 221.165 31.2747C221.619 31.1535 222.066 31.0929 222.506 31.0929C222.786 31.0929 223.108 31.127 223.472 31.1952C223.839 31.2596 224.193 31.3941 224.534 31.5986C224.879 31.8032 225.165 32.1119 225.392 32.5247C225.619 32.9376 225.733 33.4907 225.733 34.1838V39.9338H224.392V38.752H224.324C224.233 38.9414 224.081 39.1441 223.869 39.36C223.657 39.5759 223.375 39.7596 223.023 39.9111C222.67 40.0626 222.241 40.1384 221.733 40.1384ZM221.938 38.9338C222.468 38.9338 222.915 38.8297 223.278 38.6213C223.646 38.413 223.922 38.1441 224.108 37.8145C224.297 37.485 224.392 37.1384 224.392 36.7747V35.5475C224.335 35.6157 224.21 35.6782 224.017 35.735C223.828 35.788 223.608 35.8354 223.358 35.877C223.112 35.9149 222.871 35.949 222.636 35.9793C222.405 36.0058 222.218 36.0285 222.074 36.0475C221.725 36.0929 221.4 36.1668 221.097 36.2691C220.797 36.3675 220.555 36.5172 220.369 36.7179C220.188 36.9149 220.097 37.1838 220.097 37.5247C220.097 37.9907 220.269 38.3429 220.614 38.5816C220.962 38.8164 221.403 38.9338 221.938 38.9338ZM229.521 28.2975V39.9338H228.18V28.2975H229.521ZM236.659 39.9338V28.2975H238.068V38.6838H243.477V39.9338H236.659ZM248.045 40.1384C247.492 40.1384 246.991 40.0342 246.54 39.8259C246.089 39.6138 245.731 39.3088 245.466 38.9111C245.201 38.5096 245.068 38.0247 245.068 37.4566C245.068 36.9566 245.167 36.5513 245.364 36.2407C245.561 35.9263 245.824 35.68 246.153 35.502C246.483 35.324 246.847 35.1914 247.244 35.1043C247.646 35.0134 248.049 34.9414 248.455 34.8884C248.985 34.8202 249.415 34.7691 249.744 34.735C250.078 34.6971 250.32 34.6346 250.472 34.5475C250.627 34.4604 250.705 34.3088 250.705 34.0929V34.0475C250.705 33.4869 250.551 33.0513 250.244 32.7407C249.941 32.43 249.481 32.2747 248.864 32.2747C248.223 32.2747 247.722 32.4149 247.358 32.6952C246.994 32.9755 246.739 33.2747 246.591 33.5929L245.318 33.1384C245.545 32.6081 245.848 32.1952 246.227 31.8997C246.61 31.6005 247.027 31.3922 247.477 31.2747C247.932 31.1535 248.379 31.0929 248.818 31.0929C249.098 31.0929 249.42 31.127 249.784 31.1952C250.152 31.2596 250.506 31.3941 250.847 31.5986C251.191 31.8032 251.477 32.1119 251.705 32.5247C251.932 32.9376 252.045 33.4907 252.045 34.1838V39.9338H250.705V38.752H250.636C250.545 38.9414 250.394 39.1441 250.182 39.36C249.97 39.5759 249.688 39.7596 249.335 39.9111C248.983 40.0626 248.553 40.1384 248.045 40.1384ZM248.25 38.9338C248.78 38.9338 249.227 38.8297 249.591 38.6213C249.958 38.413 250.235 38.1441 250.42 37.8145C250.61 37.485 250.705 37.1384 250.705 36.7747V35.5475C250.648 35.6157 250.523 35.6782 250.33 35.735C250.14 35.788 249.92 35.8354 249.67 35.877C249.424 35.9149 249.184 35.949 248.949 35.9793C248.718 36.0058 248.53 36.0285 248.386 36.0475C248.038 36.0929 247.712 36.1668 247.409 36.2691C247.11 36.3675 246.867 36.5172 246.682 36.7179C246.5 36.9149 246.409 37.1838 246.409 37.5247C246.409 37.9907 246.581 38.3429 246.926 38.5816C247.275 38.8164 247.716 38.9338 248.25 38.9338ZM255.044 43.2066C254.817 43.2066 254.614 43.1876 254.436 43.1497C254.258 43.1157 254.135 43.0816 254.067 43.0475L254.408 41.8657C254.733 41.949 255.021 41.9793 255.271 41.9566C255.521 41.9338 255.743 41.8221 255.936 41.6213C256.133 41.4244 256.313 41.1043 256.476 40.6611L256.726 39.9793L253.499 31.2066H254.953L257.362 38.1611H257.453L259.862 31.2066H261.317L257.612 41.2066C257.446 41.6573 257.239 42.0304 256.993 42.3259C256.747 42.6251 256.461 42.8467 256.135 42.9907C255.813 43.1346 255.449 43.2066 255.044 43.2066ZM266.32 40.1157C265.532 40.1157 264.84 39.9282 264.246 39.5532C263.655 39.1782 263.193 38.6535 262.859 37.9793C262.53 37.305 262.365 36.5172 262.365 35.6157C262.365 34.7066 262.53 33.913 262.859 33.235C263.193 32.5569 263.655 32.0304 264.246 31.6554C264.84 31.2804 265.532 31.0929 266.32 31.0929C267.107 31.0929 267.797 31.2804 268.388 31.6554C268.982 32.0304 269.445 32.5569 269.774 33.235C270.107 33.913 270.274 34.7066 270.274 35.6157C270.274 36.5172 270.107 37.305 269.774 37.9793C269.445 38.6535 268.982 39.1782 268.388 39.5532C267.797 39.9282 267.107 40.1157 266.32 40.1157ZM266.32 38.9111C266.918 38.9111 267.411 38.7577 267.797 38.4509C268.183 38.1441 268.469 37.7407 268.655 37.2407C268.84 36.7407 268.933 36.199 268.933 35.6157C268.933 35.0323 268.84 34.4888 268.655 33.985C268.469 33.4812 268.183 33.074 267.797 32.7634C267.411 32.4528 266.918 32.2975 266.32 32.2975C265.721 32.2975 265.229 32.4528 264.842 32.7634C264.456 33.074 264.17 33.4812 263.984 33.985C263.799 34.4888 263.706 35.0323 263.706 35.6157C263.706 36.199 263.799 36.7407 263.984 37.2407C264.17 37.7407 264.456 38.1441 264.842 38.4509C265.229 38.7577 265.721 38.9111 266.32 38.9111ZM277.821 36.3657V31.2066H279.162V39.9338H277.821V38.4566H277.73C277.526 38.8997 277.207 39.2766 276.776 39.5872C276.344 39.8941 275.798 40.0475 275.139 40.0475C274.594 40.0475 274.109 39.9282 273.685 39.6895C273.26 39.4471 272.927 39.0835 272.685 38.5986C272.442 38.11 272.321 37.4944 272.321 36.752V31.2066H273.662V36.6611C273.662 37.2975 273.84 37.805 274.196 38.1838C274.556 38.5626 275.014 38.752 275.571 38.752C275.904 38.752 276.243 38.6668 276.588 38.4963C276.937 38.3259 277.228 38.0645 277.463 37.7122C277.702 37.36 277.821 36.9111 277.821 36.3657ZM285.413 31.2066V32.3429H280.891V31.2066H285.413ZM282.209 29.1157H283.55V37.4338C283.55 37.8126 283.605 38.0967 283.714 38.2861C283.828 38.4717 283.972 38.5967 284.146 38.6611C284.324 38.7217 284.512 38.752 284.709 38.752C284.857 38.752 284.978 38.7444 285.072 38.7293C285.167 38.7104 285.243 38.6952 285.3 38.6838L285.572 39.8884C285.482 39.9225 285.355 39.9566 285.192 39.9907C285.029 40.0285 284.822 40.0475 284.572 40.0475C284.194 40.0475 283.822 39.966 283.459 39.8032C283.099 39.6403 282.8 39.3922 282.561 39.0588C282.326 38.7255 282.209 38.305 282.209 37.7975V29.1157ZM292.589 39.9338H291.112L295.385 28.2975H296.839L301.112 39.9338H299.635L296.158 30.1384H296.067L292.589 39.9338ZM293.135 35.3884H299.089V36.6384H293.135V35.3884ZM304.084 34.6838V39.9338H302.743V31.2066H304.038V32.5702H304.152C304.357 32.127 304.667 31.771 305.084 31.502C305.5 31.2293 306.038 31.0929 306.697 31.0929C307.288 31.0929 307.805 31.2141 308.249 31.4566C308.692 31.6952 309.036 32.0588 309.283 32.5475C309.529 33.0323 309.652 33.646 309.652 34.3884V39.9338H308.311V34.4793C308.311 33.7937 308.133 33.2596 307.777 32.877C307.421 32.4907 306.932 32.2975 306.311 32.2975C305.883 32.2975 305.5 32.3903 305.163 32.5759C304.83 32.7615 304.567 33.0323 304.374 33.3884C304.18 33.7444 304.084 34.1763 304.084 34.6838ZM315.398 40.1157C314.67 40.1157 314.028 39.9319 313.472 39.5645C312.915 39.1933 312.479 38.6706 312.165 37.9963C311.85 37.3183 311.693 36.5172 311.693 35.5929C311.693 34.6763 311.85 33.8808 312.165 33.2066C312.479 32.5323 312.917 32.0115 313.477 31.6441C314.038 31.2766 314.686 31.0929 315.42 31.0929C315.989 31.0929 316.438 31.1876 316.767 31.377C317.1 31.5626 317.354 31.7747 317.528 32.0134C317.706 32.2482 317.845 32.4414 317.943 32.5929H318.057V28.2975H319.398V39.9338H318.102V38.5929H317.943C317.845 38.752 317.705 38.9528 317.523 39.1952C317.341 39.4338 317.081 39.6479 316.744 39.8372C316.407 40.0229 315.958 40.1157 315.398 40.1157ZM315.58 38.9111C316.117 38.9111 316.572 38.771 316.943 38.4907C317.314 38.2066 317.597 37.8145 317.79 37.3145C317.983 36.8107 318.08 36.2293 318.08 35.5702C318.08 34.9187 317.985 34.3486 317.795 33.86C317.606 33.3675 317.326 32.985 316.955 32.7122C316.583 32.4357 316.125 32.2975 315.58 32.2975C315.011 32.2975 314.538 32.4433 314.159 32.735C313.784 33.0229 313.502 33.4149 313.312 33.9111C313.127 34.4035 313.034 34.9566 313.034 35.5702C313.034 36.1914 313.129 36.7558 313.318 37.2634C313.511 37.7672 313.795 38.1687 314.17 38.4679C314.549 38.7634 315.019 38.9111 315.58 38.9111ZM1.40909 56.2975H3.09091L7.04545 65.9566H7.18182L11.1364 56.2975H12.8182V67.9338H11.5V59.0929H11.3864L7.75 67.9338H6.47727L2.84091 59.0929H2.72727V67.9338H1.40909V56.2975ZM19.0071 68.1157C18.2192 68.1157 17.5279 67.9282 16.9332 67.5532C16.3423 67.1782 15.8802 66.6535 15.5469 65.9793C15.2173 65.305 15.0526 64.5172 15.0526 63.6157C15.0526 62.7066 15.2173 61.913 15.5469 61.235C15.8802 60.5569 16.3423 60.0304 16.9332 59.6554C17.5279 59.2804 18.2192 59.0929 19.0071 59.0929C19.795 59.0929 20.4844 59.2804 21.0753 59.6554C21.67 60.0304 22.1321 60.5569 22.4616 61.235C22.795 61.913 22.9616 62.7066 22.9616 63.6157C22.9616 64.5172 22.795 65.305 22.4616 65.9793C22.1321 66.6535 21.67 67.1782 21.0753 67.5532C20.4844 67.9282 19.795 68.1157 19.0071 68.1157ZM19.0071 66.9111C19.6056 66.9111 20.098 66.7577 20.4844 66.4509C20.8707 66.1441 21.1567 65.7407 21.3423 65.2407C21.5279 64.7407 21.6207 64.199 21.6207 63.6157C21.6207 63.0323 21.5279 62.4888 21.3423 61.985C21.1567 61.4812 20.8707 61.074 20.4844 60.7634C20.098 60.4528 19.6056 60.2975 19.0071 60.2975C18.4086 60.2975 17.9162 60.4528 17.5298 60.7634C17.1435 61.074 16.8575 61.4812 16.6719 61.985C16.4863 62.4888 16.3935 63.0323 16.3935 63.6157C16.3935 64.199 16.4863 64.7407 16.6719 65.2407C16.8575 65.7407 17.1435 66.1441 17.5298 66.4509C17.9162 66.7577 18.4086 66.9111 19.0071 66.9111ZM28.554 68.1157C27.7358 68.1157 27.0313 67.9225 26.4403 67.5361C25.8494 67.1497 25.3949 66.6175 25.0767 65.9395C24.7585 65.2615 24.5994 64.4869 24.5994 63.6157C24.5994 62.7293 24.7623 61.9471 25.0881 61.2691C25.4176 60.5872 25.8759 60.055 26.4631 59.6725C27.054 59.2861 27.7434 59.0929 28.5312 59.0929C29.1449 59.0929 29.6979 59.2066 30.1903 59.4338C30.6828 59.6611 31.0862 59.9793 31.4006 60.3884C31.715 60.7975 31.91 61.2747 31.9858 61.8202H30.6449C30.5426 61.4225 30.3153 61.0702 29.9631 60.7634C29.6146 60.4528 29.1449 60.2975 28.554 60.2975C28.0313 60.2975 27.5729 60.4338 27.179 60.7066C26.7888 60.9755 26.4839 61.3562 26.2642 61.8486C26.0483 62.3372 25.9403 62.9111 25.9403 63.5702C25.9403 64.2444 26.0464 64.8316 26.2585 65.3316C26.4744 65.8316 26.7775 66.2198 27.1676 66.4963C27.5616 66.7729 28.0237 66.9111 28.554 66.9111C28.9025 66.9111 29.2188 66.8505 29.5028 66.7293C29.7869 66.6081 30.0275 66.4338 30.2244 66.2066C30.4214 65.9793 30.5616 65.7066 30.6449 65.3884H31.9858C31.91 65.9035 31.7225 66.3675 31.4233 66.7804C31.1278 67.1895 30.7358 67.5153 30.2472 67.7577C29.7623 67.9963 29.1979 68.1157 28.554 68.1157ZM35.196 64.752L35.1733 63.0929H35.446L39.2642 59.2066H40.9233L36.8551 63.3202H36.7415L35.196 64.752ZM33.946 67.9338V56.2975H35.2869V67.9338H33.946ZM39.4915 67.9338L36.0824 63.6157L37.0369 62.6838L41.196 67.9338H39.4915ZM48.1491 64.3657V59.2066H49.4901V67.9338H48.1491V66.4566H48.0582C47.8537 66.8997 47.5355 67.2766 47.1037 67.5872C46.6719 67.8941 46.1264 68.0475 45.4673 68.0475C44.9219 68.0475 44.437 67.9282 44.0128 67.6895C43.5885 67.4471 43.2552 67.0835 43.0128 66.5986C42.7704 66.11 42.6491 65.4944 42.6491 64.752V59.2066H43.9901V64.6611C43.9901 65.2975 44.1681 65.805 44.5241 66.1838C44.884 66.5626 45.3423 66.752 45.8991 66.752C46.2325 66.752 46.5715 66.6668 46.9162 66.4963C47.2647 66.3259 47.5563 66.0645 47.7912 65.7122C48.0298 65.36 48.1491 64.9111 48.1491 64.3657ZM51.946 71.2066V59.2066H53.2415V60.5929H53.4006C53.4991 60.4414 53.6354 60.2482 53.8097 60.0134C53.9877 59.7747 54.2415 59.5626 54.571 59.377C54.9044 59.1876 55.3551 59.0929 55.9233 59.0929C56.6581 59.0929 57.3059 59.2766 57.8665 59.6441C58.4271 60.0115 58.8646 60.5323 59.179 61.2066C59.4934 61.8808 59.6506 62.6763 59.6506 63.5929C59.6506 64.5172 59.4934 65.3183 59.179 65.9963C58.8646 66.6706 58.429 67.1933 57.8722 67.5645C57.3153 67.9319 56.6733 68.1157 55.946 68.1157C55.3854 68.1157 54.9366 68.0229 54.5994 67.8372C54.2623 67.6479 54.0028 67.4338 53.821 67.1952C53.6392 66.9528 53.4991 66.752 53.4006 66.5929H53.2869V71.2066H51.946ZM53.2642 63.5702C53.2642 64.2293 53.3608 64.8107 53.554 65.3145C53.7472 65.8145 54.0294 66.2066 54.4006 66.4907C54.7718 66.771 55.2263 66.9111 55.7642 66.9111C56.3248 66.9111 56.7926 66.7634 57.1676 66.4679C57.5464 66.1687 57.8305 65.7672 58.0199 65.2634C58.2131 64.7558 58.3097 64.1914 58.3097 63.5702C58.3097 62.9566 58.215 62.4035 58.0256 61.9111C57.84 61.4149 57.5578 61.0229 57.179 60.735C56.804 60.4433 56.3324 60.2975 55.7642 60.2975C55.2188 60.2975 54.7604 60.4357 54.3892 60.7122C54.018 60.985 53.7377 61.3675 53.5483 61.86C53.3589 62.3486 53.2642 62.9187 53.2642 63.5702ZM67.8778 61.1611L66.6733 61.502C66.5975 61.3013 66.4858 61.1062 66.3381 60.9168C66.1941 60.7236 65.9972 60.5645 65.7472 60.4395C65.4972 60.3145 65.1771 60.252 64.7869 60.252C64.2528 60.252 63.8078 60.3751 63.4517 60.6213C63.0994 60.8638 62.9233 61.1725 62.9233 61.5475C62.9233 61.8808 63.0445 62.1441 63.2869 62.3372C63.5294 62.5304 63.9081 62.6914 64.4233 62.8202L65.7188 63.1384C66.4991 63.3278 67.0805 63.6175 67.4631 64.0077C67.8456 64.3941 68.0369 64.8922 68.0369 65.502C68.0369 66.002 67.893 66.449 67.6051 66.8429C67.321 67.2369 66.9233 67.5475 66.4119 67.7747C65.9006 68.002 65.3059 68.1157 64.6278 68.1157C63.7377 68.1157 63.0009 67.9225 62.4176 67.5361C61.8343 67.1497 61.465 66.5854 61.3097 65.8429L62.5824 65.5247C62.7036 65.9944 62.9328 66.3467 63.2699 66.5816C63.6108 66.8164 64.0559 66.9338 64.6051 66.9338C65.2301 66.9338 65.7263 66.8013 66.0938 66.5361C66.465 66.2672 66.6506 65.9452 66.6506 65.5702C66.6506 65.2672 66.5445 65.0134 66.3324 64.8088C66.1203 64.6005 65.7945 64.4452 65.3551 64.3429L63.9006 64.002C63.1013 63.8126 62.5142 63.5191 62.1392 63.1213C61.768 62.7198 61.5824 62.2179 61.5824 61.6157C61.5824 61.1232 61.7206 60.6876 61.9972 60.3088C62.2775 59.93 62.6581 59.6327 63.1392 59.4168C63.6241 59.2009 64.1733 59.0929 64.7869 59.0929C65.6506 59.0929 66.3286 59.2823 66.821 59.6611C67.3172 60.0399 67.6695 60.5399 67.8778 61.1611Z" fill="#272D38"/>
</svg>
