<svg width="322" height="282" viewBox="0 0 322 282" fill="none" xmlns="http://www.w3.org/2000/svg">
<circle cx="16" cy="16" r="16" fill="#0E0D0D" fill-opacity="0.9"/>
<circle cx="16" cy="66" r="16" fill="#0E0D0D" fill-opacity="0.9"/>
<circle cx="16" cy="116" r="16" fill="#0E0D0D" fill-opacity="0.9"/>
<circle cx="16" cy="166" r="16" fill="#0E0D0D" fill-opacity="0.9"/>
<circle cx="16" cy="216" r="16" fill="#0E0D0D" fill-opacity="0.9"/>
<circle cx="16" cy="266" r="16" fill="#0E0D0D" fill-opacity="0.9"/>
<circle cx="74" cy="16" r="16" fill="#0E0D0D" fill-opacity="0.9"/>
<circle cx="74" cy="66" r="16" fill="#0E0D0D" fill-opacity="0.9"/>
<circle cx="74" cy="116" r="16" fill="#0E0D0D" fill-opacity="0.9"/>
<circle cx="74" cy="166" r="16" fill="#0E0D0D" fill-opacity="0.9"/>
<circle cx="74" cy="216" r="16" fill="#0E0D0D" fill-opacity="0.9"/>
<circle cx="74" cy="266" r="16" fill="#0E0D0D" fill-opacity="0.9"/>
<circle cx="132" cy="16" r="16" fill="#0E0D0D" fill-opacity="0.9"/>
<circle cx="132" cy="66" r="16" fill="#0E0D0D" fill-opacity="0.9"/>
<circle cx="132" cy="116" r="16" fill="#0E0D0D" fill-opacity="0.9"/>
<circle cx="132" cy="166" r="16" fill="#0E0D0D" fill-opacity="0.9"/>
<circle cx="132" cy="216" r="16" fill="#0E0D0D" fill-opacity="0.9"/>
<circle cx="132" cy="266" r="16" fill="#0E0D0D" fill-opacity="0.9"/>
<circle cx="190" cy="16" r="16" fill="#0E0D0D" fill-opacity="0.9"/>
<circle cx="190" cy="66" r="16" fill="#0E0D0D" fill-opacity="0.9"/>
<circle cx="190" cy="116" r="16" fill="#0E0D0D" fill-opacity="0.9"/>
<circle cx="190" cy="166" r="16" fill="#0E0D0D" fill-opacity="0.9"/>
<circle cx="190" cy="216" r="16" fill="#0E0D0D" fill-opacity="0.9"/>
<circle cx="190" cy="266" r="16" fill="#0E0D0D" fill-opacity="0.9"/>
<circle cx="248" cy="16" r="16" fill="#0E0D0D" fill-opacity="0.9"/>
<circle cx="248" cy="66" r="16" fill="#0E0D0D" fill-opacity="0.9"/>
<circle cx="248" cy="116" r="16" fill="#0E0D0D" fill-opacity="0.9"/>
<circle cx="248" cy="166" r="16" fill="#0E0D0D" fill-opacity="0.9"/>
<circle cx="248" cy="216" r="16" fill="#0E0D0D" fill-opacity="0.9"/>
<circle cx="248" cy="266" r="16" fill="#0E0D0D" fill-opacity="0.9"/>
<circle cx="306" cy="16" r="16" fill="#0E0D0D" fill-opacity="0.9"/>
<circle cx="306" cy="66" r="16" fill="#0E0D0D" fill-opacity="0.9"/>
<circle cx="306" cy="116" r="16" fill="#0E0D0D" fill-opacity="0.9"/>
<circle cx="306" cy="166" r="16" fill="#0E0D0D" fill-opacity="0.9"/>
<circle cx="306" cy="216" r="16" fill="#0E0D0D" fill-opacity="0.9"/>
<circle cx="306" cy="266" r="16" fill="#0E0D0D" fill-opacity="0.9"/>
</svg>
