<svg width="126" height="125" viewBox="0 0 126 125" fill="none" xmlns="http://www.w3.org/2000/svg">
<ellipse cx="63" cy="62.5" rx="51" ry="51.5" fill="black"/>
<path d="M81.4612 46.7798C80.2206 45.5304 78.7453 44.5385 77.12 43.8612C75.4948 43.184 73.7517 42.8346 71.991 42.8333C68.6606 42.8338 65.4518 44.0849 63 46.3388C60.5484 44.0845 57.3395 42.8334 54.009 42.8333C52.2462 42.8351 50.5012 43.1855 48.8743 43.8644C47.2475 44.5432 45.771 45.5371 44.5297 46.7888C39.2355 52.1055 39.2377 60.4215 44.5342 65.7157L63 84.1815L81.4657 65.7157C86.7622 60.4215 86.7645 52.1055 81.4612 46.7798Z" fill="#1DB954"/>
</svg>
