<svg width="126" height="125" viewBox="0 0 126 125" fill="none" xmlns="http://www.w3.org/2000/svg">
<ellipse cx="63" cy="62.5" rx="51" ry="51.5" fill="black"/>
<path d="M62.5 38C48.9703 38 38 48.9703 38 62.5C38 76.0297 48.9703 87 62.5 87C76.0297 87 87 76.0297 87 62.5C87 48.9703 76.0297 38 62.5 38ZM70.3805 62.8773L58.4367 71.5672C58.3712 71.6142 58.2941 71.6423 58.2137 71.6484C58.1332 71.6544 58.0527 71.6382 57.981 71.6014C57.9092 71.5647 57.8489 71.5089 57.8068 71.4401C57.7647 71.3714 57.7423 71.2924 57.7422 71.2117V53.843C57.7419 53.7622 57.764 53.6829 57.8061 53.6139C57.8481 53.5449 57.9084 53.4889 57.9804 53.4521C58.0523 53.4153 58.133 53.3991 58.2135 53.4053C58.2941 53.4116 58.3713 53.44 58.4367 53.4875L70.3805 62.1719C70.4369 62.2118 70.4829 62.2646 70.5147 62.326C70.5465 62.3874 70.563 62.4555 70.563 62.5246C70.563 62.5937 70.5465 62.6618 70.5147 62.7232C70.4829 62.7846 70.4369 62.8374 70.3805 62.8773Z" fill="#1DB954"/>
</svg>
